<svg xmlns="http://www.w3.org/2000/svg" viewBox="0 0 135.25 135.25"><defs><style>.cls-1{fill:none;stroke:#fff;stroke-linejoin:round;stroke-width:8.75px;}.cls-2{fill:#fff;}</style></defs><g id="Layer_2" data-name="Layer 2"><g id="Layer_1-2" data-name="Layer 1"><circle class="cls-1" cx="67.63" cy="67.63" r="63.25"/><path class="cls-2" d="M42.61,34c11.61,0,19.86,8.51,19.86,21.92,0,20.12-15,40-37.14,45.4l-.26-.52c10.06-5.16,17.8-16.51,17.8-28.37,0-2.58-1-3.1-3.36-3.61-9-1.55-14.7-8-14.7-17.28C24.81,41.7,32.29,34,42.61,34Zm48,0c11.61,0,19.86,8.51,19.86,21.92,0,20.12-15,40-37.14,45.4l-.26-.52c10.06-5.16,17.8-16.51,17.8-28.37,0-2.58-1-3.1-3.35-3.61-9-1.55-14.7-8-14.7-17.28C72.79,41.7,80,34,90.58,34Z"/></g></g></svg>