<svg xmlns="http://www.w3.org/2000/svg" viewBox="0 0 136.82 136.82"><defs><style>.cls-1{fill:#fff;}</style></defs><g id="Layer_2" data-name="Layer 2"><g id="Layer_1-2" data-name="Layer 1"><path class="cls-1" d="M68.41,40.65A27.76,27.76,0,1,0,96.17,68.41,27.76,27.76,0,0,0,68.41,40.65ZM49.2,68.41A19.21,19.21,0,1,1,68.41,87.62,19.21,19.21,0,0,1,49.2,68.41Z"/><path class="cls-1" d="M83.77,11.48c-4.51-15.31-26.21-15.31-30.72,0l-.8,2.73a7.48,7.48,0,0,1-10.73,4.45L39,17.29C25,9.66,9.66,25,17.3,39l1.36,2.5a7.46,7.46,0,0,1-3,10.12,6.93,6.93,0,0,1-1.46.61l-2.73.8c-15.31,4.51-15.31,26.21,0,30.72l2.73.8a7.47,7.47,0,0,1,5.05,9.28,8,8,0,0,1-.6,1.46L17.29,97.8c-7.63,14,7.7,29.37,21.73,21.73l2.5-1.36a7.48,7.48,0,0,1,10.73,4.44l.8,2.73c4.51,15.31,26.21,15.31,30.72,0l.8-2.73a7.48,7.48,0,0,1,9.28-5,7.4,7.4,0,0,1,1.46.61l2.49,1.36c14,7.64,29.37-7.71,21.73-21.73l-1.36-2.49a7.46,7.46,0,0,1,3-10.13,8.06,8.06,0,0,1,1.46-.61l2.73-.8c15.31-4.51,15.31-26.21,0-30.72l-2.73-.8a7.48,7.48,0,0,1-5-9.27,6.93,6.93,0,0,1,.61-1.46l1.36-2.5c7.64-14-7.71-29.36-21.73-21.72l-2.49,1.36a7.49,7.49,0,0,1-10.74-4.45ZM61.25,13.9a7.46,7.46,0,0,1,14.32,0l.8,2.73a16,16,0,0,0,19.9,10.83,15.55,15.55,0,0,0,3.13-1.3l2.49-1.36A7.47,7.47,0,0,1,112,34.93l-1.36,2.5a16,16,0,0,0,6.41,21.72,16.42,16.42,0,0,0,3.13,1.3l2.72.8a7.46,7.46,0,0,1,0,14.32l-2.73.8a16,16,0,0,0-10.83,19.9,15.55,15.55,0,0,0,1.3,3.13l1.37,2.49A7.47,7.47,0,0,1,101.89,112l-2.49-1.36a16,16,0,0,0-21.73,6.4,16.24,16.24,0,0,0-1.3,3.14l-.8,2.72a7.46,7.46,0,0,1-14.32,0l-.8-2.73a16,16,0,0,0-23-9.53L34.93,112A7.48,7.48,0,0,1,24.8,101.89l1.36-2.49a16,16,0,0,0-6.38-21.73,16.37,16.37,0,0,0-3.15-1.31l-2.73-.8a7.46,7.46,0,0,1,0-14.32l2.73-.8a16,16,0,0,0,10.82-19.9,15.35,15.35,0,0,0-1.29-3.11l-1.36-2.5A7.47,7.47,0,0,1,34.93,24.8l2.5,1.36a16,16,0,0,0,21.72-6.4,15.8,15.8,0,0,0,1.3-3.13Z"/></g></g></svg>