<svg xmlns="http://www.w3.org/2000/svg" viewBox="0 0 759.5 151.91"><defs><style>.cls-1{fill:#fff;}</style></defs><g id="Layer_2" data-name="Layer 2"><g id="Layer_1-2" data-name="Layer 1"><path class="cls-1" d="M201.1,23.12a2.51,2.51,0,0,1,2.68-2.24h2.39a2.71,2.71,0,0,1,2.53,1.49l32.82,70.41H242l32.82-70.41a2.57,2.57,0,0,1,2.53-1.49h2.39a2.52,2.52,0,0,1,2.69,2.24L300,123.36a2.59,2.59,0,0,1-2.69,3.43H283.74a3.24,3.24,0,0,1-2.84-2.24L272.1,68h-.45l-26.1,58.62a2.53,2.53,0,0,1-2.54,1.64h-2.68a2.68,2.68,0,0,1-2.54-1.64L211.39,68h-.45l-8.65,56.53a2.88,2.88,0,0,1-2.68,2.24H186.18a2.73,2.73,0,0,1-2.83-3.43Z" transform="translate(0 -19.63)"/><path class="cls-1" d="M333.85,89.05a38.35,38.35,0,0,1,10.89,1.64c.15-7.61-2.23-10.29-7.75-10.29a71.59,71.59,0,0,0-16.71,2.24c-2.09.59-3.13-.75-3.43-2.69l-1.34-7.76a2.93,2.93,0,0,1,2.08-3.73,80.43,80.43,0,0,1,20.29-2.83c18.65,0,23,9.7,23,26V124a2.93,2.93,0,0,1-2.83,2.83h-5.37c-1,0-1.79-.45-2.54-2.09l-1.79-4c-3.43,3.14-8.95,7.61-18.2,7.61-11.93,0-20.13-7.76-20.13-20.43C310,97.25,318.64,89.05,333.85,89.05Zm.3,26.55c4.78,0,9.4-4,10.29-5.82v-8.2a23.3,23.3,0,0,0-8.35-1.79c-5.82,0-9.69,3.28-9.69,8.06A7.43,7.43,0,0,0,334.15,115.6Z" transform="translate(0 -19.63)"/><path class="cls-1" d="M376.66,35.65a10.2,10.2,0,0,1,10.15-10.3,10.3,10.3,0,1,1,0,20.59A10.19,10.19,0,0,1,376.66,35.65ZM378,70a2.84,2.84,0,0,1,2.84-2.84h12.38A2.84,2.84,0,0,1,396.05,70v54a2.93,2.93,0,0,1-2.83,2.83H380.84A2.94,2.94,0,0,1,378,124Z" transform="translate(0 -19.63)"/><path class="cls-1" d="M414,25.21a2.94,2.94,0,0,1,2.84-2.84h12.53a2.93,2.93,0,0,1,2.83,2.84V124a2.93,2.93,0,0,1-2.83,2.83H416.79A2.94,2.94,0,0,1,414,124Z" transform="translate(0 -19.63)"/><path class="cls-1" d="M440.36,122.91,486.75,22.52a2.66,2.66,0,0,1,2.53-1.64h1.5a2.52,2.52,0,0,1,2.53,1.64l45.94,100.39a2.63,2.63,0,0,1-2.53,3.88h-13c-2.24,0-3.28-.9-4.32-3l-7.31-16.11H467.5l-7.31,16.11a4.48,4.48,0,0,1-4.32,3h-13A2.63,2.63,0,0,1,440.36,122.91ZM504.8,91.14,489.88,58.32h-.45L474.81,91.14Z" transform="translate(0 -19.63)"/><path class="cls-1" d="M538.36,70.55c-.9-1.94.45-3.43,2.53-3.43h10.74a3.13,3.13,0,0,1,2.69,1.79l8.95,26.7h.15L578.63,67A2.58,2.58,0,0,1,581,65.63h1.19A2.48,2.48,0,0,1,584.6,67l15.07,28.64h.15l8.95-26.7c.59-1.64,1.79-1.79,3.43-1.79h9.69c2.09,0,3.43,1.49,2.69,3.43l-18.65,56.09a2.6,2.6,0,0,1-2.68,1.64h-.6a2.66,2.66,0,0,1-2.39-1.34L581.47,92.18h-.15l-18.65,34.76a2.64,2.64,0,0,1-2.38,1.34h-.75a2.54,2.54,0,0,1-2.54-1.64Z" transform="translate(0 -19.63)"/><path class="cls-1" d="M656.05,89.05a38.35,38.35,0,0,1,10.89,1.64c.15-7.61-2.24-10.29-7.76-10.29a71.49,71.49,0,0,0-16.7,2.24c-2.09.59-3.14-.75-3.44-2.69l-1.34-7.76a2.94,2.94,0,0,1,2.09-3.73,80.35,80.35,0,0,1,20.29-2.83c18.64,0,23,9.7,23,26V124a2.93,2.93,0,0,1-2.83,2.83h-5.37c-1.05,0-1.79-.45-2.54-2.09l-1.79-4c-3.43,3.14-8.95,7.61-18.2,7.61-11.93,0-20.14-7.76-20.14-20.43C632.18,97.25,640.83,89.05,656.05,89.05Zm.3,26.55c4.77,0,9.4-4,10.29-5.82v-8.2a23.37,23.37,0,0,0-8.35-1.79c-5.82,0-9.7,3.28-9.7,8.06A7.44,7.44,0,0,0,656.35,115.6Z" transform="translate(0 -19.63)"/><path class="cls-1" d="M692.44,71A2.64,2.64,0,0,1,695,67.12H708.4a2.69,2.69,0,0,1,2.54,1.64L726,102.48h.15l14.91-33.72c.75-1.49,1.79-1.64,3.58-1.64h11.94c2.38,0,3.58,1.94,2.53,3.88l-45.64,98.75a3,3,0,0,1-2.54,1.79H698.11a2.67,2.67,0,0,1-2.53-4l21.18-44.9Z" transform="translate(0 -19.63)"/><path class="cls-1" d="M76.81,63.44s40.34.49,73.54,24L148.8,24.49C125,17.1,65.48,19.71,29.94,22.13A115.55,115.55,0,0,1,76.81,63.44Z" transform="translate(0 -19.63)"/><path class="cls-1" d="M57.65,94.39S48,50,6.48,23.94c-2.91.25-4.54.41-4.54.41C-1.3,39.42.5,125.53.5,125.53c61.72-7.79,150.74-2,150.74-2l-.46-18.57C129.6,92.51,99,84.07,57.65,94.39Z" transform="translate(0 -19.63)"/></g></g></svg>