<svg xmlns="http://www.w3.org/2000/svg" xmlns:xlink="http://www.w3.org/1999/xlink" viewBox="0 0 298.67 280"><defs><style>.cls-1,.cls-3,.cls-4{fill:none;}.cls-2{clip-path:url(#clip-path);}.cls-3,.cls-4{stroke:#55a0d4;stroke-width:9.33px;}.cls-3{stroke-linejoin:round;}.cls-4{stroke-miterlimit:10;}</style><clipPath id="clip-path" transform="translate(0)"><rect class="cls-1" width="298.67" height="280"/></clipPath></defs><g id="Layer_2" data-name="Layer 2"><g id="Layer_1-2" data-name="Layer 1"><g id="Digital_Graphics" data-name="Digital Graphics"><g class="cls-2"><line class="cls-3" x1="130.67" y1="42" x2="130.67" y2="233.33"/><line class="cls-3" x1="93.33" y1="233.33" x2="93.33" y2="42"/><line class="cls-3" x1="112" y1="42" x2="112" y2="233.33"/><g class="cls-2"><polygon class="cls-3" points="112 4.67 93.33 42 130.67 42 112 4.67"/><polyline class="cls-4" points="158.67 233.33 158.67 4.67 205.33 4.67 205.33 233.33"/></g><line class="cls-4" x1="186.67" y1="18.67" x2="186.67" y2="28"/><line class="cls-4" x1="158.67" y1="42" x2="172.67" y2="42"/><line class="cls-4" x1="158.67" y1="60.67" x2="172.67" y2="60.67"/><line class="cls-4" x1="158.67" y1="79.33" x2="172.67" y2="79.33"/><line class="cls-4" x1="158.67" y1="98" x2="172.67" y2="98"/><line class="cls-4" x1="158.67" y1="116.67" x2="172.67" y2="116.67"/><line class="cls-4" x1="158.67" y1="135.33" x2="172.67" y2="135.33"/><line class="cls-4" x1="158.67" y1="154" x2="172.67" y2="154"/><line class="cls-4" x1="158.67" y1="172.67" x2="172.67" y2="172.67"/><line class="cls-4" x1="158.67" y1="191.33" x2="172.67" y2="191.33"/><line class="cls-4" x1="158.67" y1="210" x2="172.67" y2="210"/><line class="cls-4" x1="158.67" y1="228.67" x2="172.67" y2="228.67"/><g class="cls-2"><polygon class="cls-4" points="275.33 275.33 23.33 275.33 4.67 256.67 4.67 247.33 116.67 247.33 126 256.67 172.67 256.67 182 247.33 294 247.33 294 256.67 275.33 275.33"/><path class="cls-4" d="M79.33,70h-42a14,14,0,0,0-14,14V233.33" transform="translate(0)"/><path class="cls-4" d="M275.33,233.33V84a14,14,0,0,0-14-14h-42" transform="translate(0)"/><polyline class="cls-4" points="219.33 88.67 256.67 88.67 256.67 228.67 219.33 228.67"/><polyline class="cls-4" points="79.33 228.67 42 228.67 42 88.67 79.33 88.67"/></g></g></g></g></g></svg>