<svg xmlns="http://www.w3.org/2000/svg" viewBox="0 0 85.51 136.82"><defs><style>.cls-1{fill:#fff;}</style></defs><g id="Layer_2" data-name="Layer 2"><g id="Layer_1-2" data-name="Layer 1"><path class="cls-1" d="M68.41,8.55A8.55,8.55,0,0,1,77,17.1V119.72a8.55,8.55,0,0,1-8.55,8.55H17.1a8.55,8.55,0,0,1-8.55-8.55V17.1A8.55,8.55,0,0,1,17.1,8.55ZM17.1,0A17.11,17.11,0,0,0,0,17.1V119.72a17.1,17.1,0,0,0,17.1,17.1H68.41a17.09,17.09,0,0,0,17.1-17.1V17.1A17.1,17.1,0,0,0,68.41,0Z"/><path class="cls-1" d="M42.76,119.72a8.55,8.55,0,1,0-8.55-8.55A8.55,8.55,0,0,0,42.76,119.72Z"/></g></g></svg>