<svg xmlns="http://www.w3.org/2000/svg" xmlns:xlink="http://www.w3.org/1999/xlink" viewBox="0 0 759.5 267.04"><defs><style>.cls-1{fill:none;}.cls-2{fill:#fff;}.cls-3{clip-path:url(#clip-path);}.cls-4{clip-path:url(#clip-path-2);}.cls-5{clip-path:url(#clip-path-3);}</style><clipPath id="clip-path" transform="translate(0 -19.63)"><rect id="SVGID" class="cls-1" x="109.58" y="177.73" width="334.79" height="106.44"/></clipPath><clipPath id="clip-path-2" transform="translate(0 -19.63)"><rect id="SVGID-2" data-name="SVGID" class="cls-1" x="109.58" y="177.73" width="334.79" height="106.31"/></clipPath><clipPath id="clip-path-3" transform="translate(0 -19.63)"><rect id="SVGID-3" data-name="SVGID" class="cls-1" x="109.58" y="177.73" width="334.79" height="106.44"/></clipPath></defs><g id="Layer_2" data-name="Layer 2"><g id="Layer_1-2" data-name="Layer 1"><path class="cls-2" d="M6.78,182.33a2.09,2.09,0,0,1,2-2h3.3a2.1,2.1,0,0,1,2,2v31.59a22.8,22.8,0,0,1,11.38-2.76c12.76,0,20.42,9.78,20.42,22.23,0,12.23-8.51,22.44-19.36,22.44a19,19,0,0,1-13.08-5.64l-.64,2.88a1.93,1.93,0,0,1-1.81,1.7H8.8a2.09,2.09,0,0,1-2-2Zm19,66.8c7.76,0,12.65-7.34,12.65-15.64,0-8.5-4.68-15.21-13.93-15.21a22.83,22.83,0,0,0-10.32,2.56v21.27S18.16,249.13,25.82,249.13Z" transform="translate(0 -19.63)"/><path class="cls-2" d="M51.88,214.56c-.64-1.38,0-2.34,1.59-2.34h4.68A2,2,0,0,1,60,213.39l15.75,32.55h.1L90.7,213.39a2.17,2.17,0,0,1,1.81-1.17h4c1.6,0,2.34,1.06,1.6,2.45L65.49,285.4a2.25,2.25,0,0,1-1.8,1.28H59.75c-1.6,0-2.45-1.17-1.7-2.66l13.61-29.36Z" transform="translate(0 -19.63)"/><g id="Logotype_black_" data-name="Logotype (black)"><g class="cls-3"><g class="cls-4"><path class="cls-2" d="M444.27,196.88v15.39H435c.79.84,1.5,1.49,2.09,2.24,2.77,3.44,3.32,7.43,2.6,11.65-.94,5.47-4.43,8.79-9.39,10.73a35.45,35.45,0,0,1-15,1.92,38.48,38.48,0,0,1-4.15-.48,3.71,3.71,0,0,0-4.17,2.44,3.1,3.1,0,0,0,1.31,3.66,10.61,10.61,0,0,0,5.79,1.66c4.66.14,9.31.08,14,.21,3.9.11,7.71.73,11.1,2.89A10.92,10.92,0,0,1,444.3,258c.6,7.43-2.63,13-8.61,17a31.86,31.86,0,0,1-15.12,5.07,41.87,41.87,0,0,1-14.92-1,17.13,17.13,0,0,1-7.9-4,6.79,6.79,0,0,1,0-10.12,14.91,14.91,0,0,1,7.44-3.54c.48-.11,1-.2,1.53-.31-1.4-.54-2.74-.95-4-1.55-3.13-1.5-5.51-3.75-6.27-7.28a10.12,10.12,0,0,1,3.36-10.07,19.12,19.12,0,0,1,7.92-4.15l1-.26c-.84-.29-1.55-.51-2.24-.76-4.3-1.58-7.76-4.17-9.28-8.66a16.59,16.59,0,0,1,1.26-14.3,14.8,14.8,0,0,1,7.43-6.12,31.92,31.92,0,0,1,14.18-2.07,29.92,29.92,0,0,1,10,2.07c.46.19.91.41,1.36.63,1.16.55,1.29.54,2.16-.39q3.66-3.87,7.3-7.75l3.38-3.57m-25,81.34a22.34,22.34,0,0,0,9-1.72c2.74-1.23,5-3,5.75-6.1.93-3.72-.53-6.53-4-7.58a17.58,17.58,0,0,0-4-.72c-3.42-.2-6.85-.23-10.28-.39-2.36-.1-4.72-.31-7.08-.46a1.61,1.61,0,0,0-.8.09,7.18,7.18,0,0,0-3.54,4.37,8.61,8.61,0,0,0,3.75,9.18,19.81,19.81,0,0,0,11.26,3.33m5.28-56.81c-.13-1.51-.27-3.94-.55-6.36a11.68,11.68,0,0,0-1.8-5.35,5,5,0,0,0-8.22,0,10.58,10.58,0,0,0-1.47,3.52,47.51,47.51,0,0,0-.3,16.94A11.2,11.2,0,0,0,414,235a4.93,4.93,0,0,0,8.25,0,9.85,9.85,0,0,0,1.14-2.41c1.06-3.32,1.08-6.78,1.22-11.14" transform="translate(0 -19.63)"/></g><g class="cls-5"><path class="cls-2" d="M332.92,206.66H355.3v10.17l.21,0c.2-.47.39-1,.61-1.41,2.6-5.64,6.93-8.88,13.13-9.52a16.26,16.26,0,0,1,8.89,1.34,13.74,13.74,0,0,1,6.73,7.49A31.88,31.88,0,0,1,387,227.59c-.07,7-.13,14.06-.28,21.09a4.18,4.18,0,0,0,1.56,3.65c1.52,1.26,2.91,2.67,4.5,4.13H364.45l-.24-.28a6,6,0,0,0,.9-.57c1.32-1.25,2.61-2.52,3.94-3.77a3.06,3.06,0,0,0,1-2.29c.07-7.92.22-15.84.18-23.77a23.72,23.72,0,0,0-1-6.19c-1.54-5.54-7.34-7.2-11.73-3.45l-.62.56a4.65,4.65,0,0,0-1.67,3.79c.09,9.49.06,19,0,28.48a3.74,3.74,0,0,0,1.34,3.15c1.37,1.16,2.62,2.44,3.94,3.65a3.83,3.83,0,0,0,.71.43l-.21.27H333a6,6,0,0,1,.5-.56c1.5-1.43,3-2.86,4.51-4.26a2.59,2.59,0,0,0,.86-2q0-17.71,0-35.45a3.45,3.45,0,0,0-1.11-2.53c-1.39-1.41-2.77-2.83-4.16-4.25l-.68-.75" transform="translate(0 -19.63)"/><path class="cls-2" d="M309.06,230.64c0-4.72.06-9.2,0-13.68a12.86,12.86,0,0,0-1.47-5.8,6.46,6.46,0,0,0-7.3-3.3,2.43,2.43,0,0,0-1.18,1.17c-2.36,4.31-4.67,8.65-7,13-.37.68-.74,1.37-1.23,2.26-2.17-5-4.27-9.74-6.43-14.65,1.68-.52,3.31-1.07,5-1.53a55.83,55.83,0,0,1,17-2.24,25.52,25.52,0,0,1,10.08,2.05,13.86,13.86,0,0,1,7.68,9.1,37.28,37.28,0,0,1,1.11,12.22q-.33,8.47-.59,17a6.16,6.16,0,0,0,.34,1.88,2.31,2.31,0,0,0,2,1.88,2.82,2.82,0,0,0,2.72-1.14l.58-.81a7.85,7.85,0,0,1-.89,4,9.62,9.62,0,0,1-7.09,5.06,12.29,12.29,0,0,1-9.08-1.5A9.22,9.22,0,0,1,308.9,249c-.06-.35-.11-.7-.13-.85a47.94,47.94,0,0,1-2.9,4.32c-3.14,3.76-7.3,5.17-12.08,4.81a12.68,12.68,0,0,1-9.8-5.34,15.28,15.28,0,0,1,8.27-23.06,20.94,20.94,0,0,1,15.32.94c.42.19.81.45,1.48.83m-.32,8.51h.17v-6c0-1.56,0-1.56-1.54-1.89-3.9-.82-7.28.65-8.91,4.07a13.57,13.57,0,0,0-.41,11.14,5.11,5.11,0,0,0,3.76,3.39c2.81.58,4.83-.77,6.51-2.83a2.06,2.06,0,0,0,.4-1.21c0-2.21,0-4.42,0-6.63" transform="translate(0 -19.63)"/></g><g class="cls-4"><path class="cls-2" d="M192.67,248.2a7.54,7.54,0,0,1-2.36,6c-2.55,2.58-5.75,3.29-9.21,3a10.48,10.48,0,0,1-7.5-3.56,10.11,10.11,0,0,1-2.32-5.95c-.18.36-.29.55-.38.75a14.41,14.41,0,0,1-20.44,7,11.8,11.8,0,0,1-5.65-7c-1.39-4.49-1.24-8.89,1.23-13a14.67,14.67,0,0,1,8.2-6.42,20.87,20.87,0,0,1,15.86.74c.43.19.82.45,1.26.69,0-.1.12-.16.12-.23,0-4.67.1-9.35,0-14a10.22,10.22,0,0,0-2.21-6.3c-1.71-2.12-4-2.42-6.51-2.07-.44.07-.9.72-1.16,1.2-2.53,4.63-5,9.29-7.52,13.93-.19.36-.4.71-.7,1.23L147,209.65l2.14-.72A58.08,58.08,0,0,1,169,205.85a25.63,25.63,0,0,1,9.92,2,13.91,13.91,0,0,1,7.71,9A31,31,0,0,1,187.82,227c-.16,5.79-.48,11.58-.68,17.37a16,16,0,0,0,.33,3.58,2.3,2.3,0,0,0,2.05,2,2.8,2.8,0,0,0,2.81-1.28c.11-.16.23-.31.34-.46m-21.38-9.08h.17c0-2,0-3.92,0-5.88,0-1.68,0-1.68-1.59-2-3.57-.74-6.73.38-8.44,3.3a13.08,13.08,0,0,0-.77,12.08,5.07,5.07,0,0,0,6.25,3.18,7.13,7.13,0,0,0,3.89-2.75,2.4,2.4,0,0,0,.46-1.28c0-2.21,0-4.42,0-6.63" transform="translate(0 -19.63)"/><path class="cls-2" d="M109.58,283.57c.75-.17,1.51-.31,2.25-.52a13.73,13.73,0,0,0,9.22-8.09,29.39,29.39,0,0,0,2.4-10.4c.2-3.18.24-6.37.25-9.56q0-23.4,0-46.78c0-.51,0-1,0-1.51a2.45,2.45,0,0,0-1-2c-2.23-1.86-4.43-3.75-6.64-5.63-.23-.2-.44-.41-.8-.75h23.59c0,.25,0,.5,0,.74,0,18.82,0,37.63,0,56.44a35.1,35.1,0,0,1-3.14,14.81,22.47,22.47,0,0,1-16.5,13.1,28,28,0,0,1-8.81.5c-.27,0-.54-.09-.81-.14,0-.06,0-.12,0-.19" transform="translate(0 -19.63)"/></g><g class="cls-5"><path class="cls-2" d="M272.08,256.49H238.47c.28-.3.44-.5.62-.68,1.44-1.36,2.88-2.73,4.34-4.07a2.6,2.6,0,0,0,.93-2.05q0-17.77,0-35.53a3.32,3.32,0,0,0-1.06-2.46c-1.4-1.41-2.77-2.84-4.15-4.26l-.67-.73h22.35v12.13l.11,0c.49-1.34.9-2.71,1.47-4,1.39-3.18,3.25-6,6.37-7.74a9.33,9.33,0,0,1,11.15,1.21,1.44,1.44,0,0,1,.4,1.74c-1.68,4.67-3.29,9.37-4.92,14.06-.1.28-.23.56-.4,1-1.05-1.23-2-2.38-3-3.52l-4.79-5.73a5.53,5.53,0,0,0-.76-.77,1,1,0,0,0-1.38,0c-2,1.46-3.07,3.58-4.18,5.68a1.88,1.88,0,0,0-.07.83c0,8.7,0,17.41,0,26.12a3.13,3.13,0,0,0,1.74,3c3,1.69,5.92,3.44,8.88,5.17l.68.44-.06.15" transform="translate(0 -19.63)"/></g><g class="cls-4"><path class="cls-2" d="M217.82,218.83c.94-2.11,1.77-4.37,2.9-6.46,1.75-3.2,4.29-5.58,8-6.32a8.39,8.39,0,0,1,8.5,2.63,1.1,1.1,0,0,1,.22.92c-1.72,5.05-3.48,10.08-5.23,15.11a1.37,1.37,0,0,1-.19.27,4.84,4.84,0,0,1-.46-.43l-6.89-8.23c-.24-.28-.47-.56-.71-.82-.83-.9-1.25-.9-2.19-.15A16,16,0,0,0,218,220.7a1.79,1.79,0,0,0-.1.81c0,8.74,0,17.47,0,26.21a3.08,3.08,0,0,0,1.72,3c3,1.7,5.92,3.45,8.88,5.18a1.77,1.77,0,0,1,.69.6H195.48c.27-.29.43-.48.62-.66,1.32-1.24,2.6-2.53,4-3.71a3.65,3.65,0,0,0,1.34-3.08c0-4.73,0-9.46,0-14.19,0-6.66,0-13.33,0-20a4.46,4.46,0,0,0-1.42-3.51c-1.34-1.27-2.59-2.62-3.88-3.94-.19-.2-.36-.4-.64-.71h22.34Z" transform="translate(0 -19.63)"/><path class="cls-2" d="M137.64,194.41c-1.69-.84-3.21-1.63-4.78-2.34a2.8,2.8,0,0,0-1.49-.17,8.34,8.34,0,0,1-8-2.7,6.26,6.26,0,0,1,.38-9c3.73-3.65,10.47-3.14,13.38,1a5.93,5.93,0,0,1-.18,7.44,1.64,1.64,0,0,0-.32,1.66c.37,1.31.66,2.64,1,4.12" transform="translate(0 -19.63)"/></g></g></g><path class="cls-2" d="M201.1,23.12a2.51,2.51,0,0,1,2.68-2.24h2.39a2.74,2.74,0,0,1,2.54,1.49l32.81,70.41H242l32.82-70.41a2.57,2.57,0,0,1,2.53-1.49h2.39a2.52,2.52,0,0,1,2.69,2.24L300,123.36a2.59,2.59,0,0,1-2.69,3.43H283.74a3.24,3.24,0,0,1-2.84-2.24L272.1,68h-.44l-26.11,58.62a2.53,2.53,0,0,1-2.54,1.64h-2.68a2.68,2.68,0,0,1-2.54-1.64L211.39,68h-.45l-8.65,56.53a2.88,2.88,0,0,1-2.68,2.24H186.18a2.73,2.73,0,0,1-2.83-3.43Z" transform="translate(0 -19.63)"/><path class="cls-2" d="M333.85,89.05a38.35,38.35,0,0,1,10.89,1.64c.15-7.61-2.23-10.29-7.75-10.29a72.17,72.17,0,0,0-16.71,2.23c-2.09.6-3.13-.74-3.43-2.68l-1.34-7.76a2.93,2.93,0,0,1,2.08-3.73,80.43,80.43,0,0,1,20.29-2.83c18.65,0,23,9.7,23,26V124a2.93,2.93,0,0,1-2.83,2.83h-5.37c-1,0-1.79-.45-2.54-2.09l-1.79-4c-3.43,3.14-8.95,7.61-18.2,7.61-11.93,0-20.13-7.76-20.13-20.44C310,97.25,318.64,89.05,333.85,89.05Zm.3,26.55c4.78,0,9.4-4,10.3-5.82v-8.2a23.39,23.39,0,0,0-8.36-1.79c-5.82,0-9.69,3.28-9.69,8A7.44,7.44,0,0,0,334.15,115.6Z" transform="translate(0 -19.63)"/><path class="cls-2" d="M376.66,35.65a10.2,10.2,0,0,1,10.15-10.3,10.3,10.3,0,1,1,0,20.59A10.19,10.19,0,0,1,376.66,35.65ZM378,70a2.84,2.84,0,0,1,2.84-2.84h12.38A2.83,2.83,0,0,1,396.05,70v54a2.93,2.93,0,0,1-2.83,2.83H380.84A2.94,2.94,0,0,1,378,124Z" transform="translate(0 -19.63)"/><path class="cls-2" d="M414,25.2a2.94,2.94,0,0,1,2.84-2.83h12.53a2.93,2.93,0,0,1,2.83,2.83V124a2.93,2.93,0,0,1-2.83,2.83H416.79A2.94,2.94,0,0,1,414,124Z" transform="translate(0 -19.63)"/><path class="cls-2" d="M440.36,122.91,486.75,22.52a2.67,2.67,0,0,1,2.53-1.64h1.5a2.52,2.52,0,0,1,2.53,1.64l45.94,100.39a2.63,2.63,0,0,1-2.53,3.88h-13c-2.24,0-3.28-.9-4.32-3l-7.31-16.11H467.5l-7.3,16.11a4.5,4.5,0,0,1-4.33,3h-13A2.63,2.63,0,0,1,440.36,122.91ZM504.8,91.14,489.88,58.32h-.45L474.81,91.14Z" transform="translate(0 -19.63)"/><path class="cls-2" d="M538.36,70.55c-.9-1.94.45-3.43,2.53-3.43h10.74a3.13,3.13,0,0,1,2.69,1.79l8.95,26.7h.15L578.63,67A2.58,2.58,0,0,1,581,65.63h1.19A2.48,2.48,0,0,1,584.6,67l15.07,28.64h.15l8.95-26.7c.59-1.64,1.79-1.79,3.43-1.79h9.69c2.09,0,3.43,1.49,2.69,3.43l-18.65,56.09a2.6,2.6,0,0,1-2.68,1.64h-.6a2.66,2.66,0,0,1-2.39-1.34L581.47,92.18h-.15l-18.65,34.76a2.64,2.64,0,0,1-2.38,1.34h-.75a2.54,2.54,0,0,1-2.54-1.64Z" transform="translate(0 -19.63)"/><path class="cls-2" d="M656.05,89.05a38.35,38.35,0,0,1,10.89,1.64c.15-7.61-2.24-10.29-7.76-10.29a72.08,72.08,0,0,0-16.7,2.23c-2.09.6-3.14-.74-3.44-2.68l-1.34-7.76a2.94,2.94,0,0,1,2.09-3.73,80.35,80.35,0,0,1,20.29-2.83c18.64,0,23,9.7,23,26V124a2.93,2.93,0,0,1-2.83,2.83h-5.37c-1.05,0-1.79-.45-2.54-2.09l-1.79-4c-3.43,3.14-8.95,7.61-18.2,7.61-11.93,0-20.14-7.76-20.14-20.44C632.18,97.25,640.83,89.05,656.05,89.05Zm.3,26.55c4.77,0,9.4-4,10.29-5.82v-8.2a23.37,23.37,0,0,0-8.35-1.79c-5.82,0-9.7,3.28-9.7,8A7.44,7.44,0,0,0,656.35,115.6Z" transform="translate(0 -19.63)"/><path class="cls-2" d="M692.44,71A2.64,2.64,0,0,1,695,67.12h13.43a2.68,2.68,0,0,1,2.53,1.64L726,102.47h.15l14.91-33.71c.75-1.49,1.79-1.64,3.58-1.64h11.94c2.38,0,3.58,1.94,2.53,3.88l-45.64,98.75a3,3,0,0,1-2.54,1.79H698.11a2.67,2.67,0,0,1-2.53-4l21.18-44.9Z" transform="translate(0 -19.63)"/><path class="cls-2" d="M76.81,63.44s40.34.49,73.54,24L148.8,24.49C125,17.1,65.48,19.71,29.94,22.13A115.55,115.55,0,0,1,76.81,63.44Z" transform="translate(0 -19.63)"/><path class="cls-2" d="M57.65,94.39S48,50,6.48,23.94c-2.91.25-4.54.41-4.54.41C-1.3,39.42.5,125.53.5,125.53c61.72-7.79,150.74-2,150.74-2l-.46-18.57C129.6,92.51,99,84.06,57.65,94.39Z" transform="translate(0 -19.63)"/></g></g></svg>