<svg xmlns="http://www.w3.org/2000/svg" xmlns:xlink="http://www.w3.org/1999/xlink" viewBox="0 0 280 280"><defs><style>.cls-1,.cls-3,.cls-4{fill:none;}.cls-2{clip-path:url(#clip-path);}.cls-3,.cls-4{stroke:#55a0d4;stroke-width:8.75px;}.cls-3{stroke-linejoin:round;}.cls-4{stroke-miterlimit:10;}</style><clipPath id="clip-path"><rect class="cls-1" width="280" height="280"/></clipPath></defs><g id="Layer_2" data-name="Layer 2"><g id="Layer_1-2" data-name="Layer 1"><g id="Project_Features" data-name="Project Features"><g class="cls-2"><g class="cls-2"><polygon class="cls-3" points="140 4.38 175 105 275.63 105 196.88 166.25 223.13 262.5 140 205.63 56.88 262.5 83.13 166.25 4.38 105 105 105 140 4.38"/></g><line class="cls-4" x1="192.5" y1="78.75" x2="201.25" y2="78.75"/><line class="cls-4" x1="78.75" y1="78.75" x2="87.5" y2="78.75"/><line class="cls-4" x1="48.13" y1="175" x2="56.88" y2="175"/><line class="cls-4" x1="223.13" y1="175" x2="231.88" y2="175"/><line class="cls-4" x1="135.63" y1="236.25" x2="144.38" y2="236.25"/><polygon class="cls-3" points="140 96.25 157.5 131.25 192.5 131.25 161.88 157.5 175 196.88 140 175 105 196.88 118.13 157.5 87.5 131.25 122.5 131.25 140 96.25"/><line class="cls-3" x1="135.63" y1="148.75" x2="144.38" y2="148.75"/><g class="cls-2"><circle class="cls-3" cx="140" cy="148.75" r="126.88"/></g></g></g></g></g></svg>