<svg xmlns="http://www.w3.org/2000/svg" xmlns:xlink="http://www.w3.org/1999/xlink" viewBox="0 0 280 280"><defs><style>.cls-1,.cls-3{fill:none;}.cls-2{clip-path:url(#clip-path);}.cls-3{stroke:#55a0d4;stroke-linejoin:round;stroke-width:8.75px;}</style><clipPath id="clip-path"><rect class="cls-1" width="280" height="280"/></clipPath></defs><g id="Layer_2" data-name="Layer 2"><g id="Layer_1-2" data-name="Layer 1"><g id="Support_Headset" data-name="Support Headset"><g class="cls-2"><g class="cls-2"><circle class="cls-3" cx="26.25" cy="131.25" r="13.12"/><rect class="cls-3" x="39.38" y="161.87" width="35" height="87.5" rx="8.75"/><line class="cls-3" x1="135.63" y1="201.25" x2="144.37" y2="201.25"/><line class="cls-3" x1="118.13" y1="201.25" x2="126.88" y2="201.25"/><line class="cls-3" x1="153.12" y1="201.25" x2="161.87" y2="201.25"/><rect class="cls-3" x="122.5" y="253.75" width="43.75" height="21.88" rx="8.75"/><path class="cls-3" d="M157.5,275.62h70a13.12,13.12,0,0,0,13.12-13.12V240.62"/><path class="cls-3" d="M39.38,240.62a35,35,0,0,1,0-70"/><polyline class="cls-3" points="17.5 144.38 13.13 157.5 13.13 183.75"/><circle class="cls-3" cx="253.75" cy="131.25" r="13.12"/><rect class="cls-3" x="205.62" y="161.87" width="35" height="87.5" rx="8.75"/><path class="cls-3" d="M240.62,240.62a35,35,0,0,0,0-70"/><polyline class="cls-3" points="262.5 144.38 266.88 157.5 266.88 183.75"/><path class="cls-3" d="M26.25,118.12a113.75,113.75,0,0,1,227.5,0"/><path class="cls-3" d="M43.75,118.12a96.25,96.25,0,0,1,192.5,0"/></g></g></g></g></g></svg>