<svg xmlns="http://www.w3.org/2000/svg" viewBox="0 0 138.55 136.82"><defs><style>.cls-1{fill:#fff;}</style></defs><g id="Layer_2" data-name="Layer 2"><g id="Layer_1-2" data-name="Layer 1"><path class="cls-1" d="M73.35,9.68a8.69,8.69,0,0,0-8.14,0l-52,27.71A8.67,8.67,0,0,0,8.66,45v7.08l49.57,30,11.05-6.63,11,6.63,49.56-30V45a8.65,8.65,0,0,0-4.59-7.64Zm56.54,52.57L88.73,87.16l41.16,24.7V62.24Zm-.3,59.52L69.28,85.58,9,121.78a8.66,8.66,0,0,0,8.36,6.38H121.23A8.66,8.66,0,0,0,129.59,121.77ZM8.66,111.86l41.17-24.7L8.66,62.24ZM61.13,2A17.28,17.28,0,0,1,77.42,2l52,27.71A17.3,17.3,0,0,1,138.55,45V119.5a17.31,17.31,0,0,1-17.32,17.32H17.32A17.31,17.31,0,0,1,0,119.5V45A17.32,17.32,0,0,1,9.17,29.75Z"/></g></g></svg>