<svg xmlns="http://www.w3.org/2000/svg" viewBox="0 0 94.06 136.82"><defs><style>.cls-1{fill:#fff;}</style></defs><g id="Layer_2" data-name="Layer 2"><g id="Layer_1-2" data-name="Layer 1"><path class="cls-1" d="M74.83.59a4.26,4.26,0,0,1,1.94,5l-15.4,50H89.79a4.28,4.28,0,0,1,3.11,7.21L24.49,135.48a4.28,4.28,0,0,1-7.2-4.19l15.4-50H4.28A4.28,4.28,0,0,1,1.16,74L69.57,1.35A4.27,4.27,0,0,1,74.83.58ZM14.17,72.69H38.48A4.28,4.28,0,0,1,42.76,77a4.47,4.47,0,0,1-.19,1.26l-11.7,38,49-52.07H55.58a4.28,4.28,0,0,1-4.27-4.28,4.14,4.14,0,0,1,.19-1.26l11.69-38Z"/></g></g></svg>