<svg xmlns="http://www.w3.org/2000/svg" viewBox="0 0 136.82 136.82"><defs><style>.cls-1{fill:#fff;fill-rule:evenodd;}</style></defs><g id="Layer_2" data-name="Layer 2"><g id="Layer_1-2" data-name="Layer 1"><path class="cls-1" d="M0,0H8.55V128.27H136.82v8.55H0ZM85.51,29.93a4.28,4.28,0,0,1,4.28-4.28H124a4.28,4.28,0,0,1,4.27,4.28V64.14a4.28,4.28,0,0,1-8.55,0V41.9L88.82,79.67a4.26,4.26,0,0,1-6,.6A2.8,2.8,0,0,1,82.5,80L60.37,57.87l-31.26,43a4.28,4.28,0,0,1-6.91-5l34.21-47a4.27,4.27,0,0,1,6-.94,4.15,4.15,0,0,1,.51.43L85.2,70.6,115,34.21H89.79A4.28,4.28,0,0,1,85.51,29.93Z"/></g></g></svg>