<svg xmlns="http://www.w3.org/2000/svg" viewBox="0 0 119.72 136.82"><defs><style>.cls-1,.cls-2{fill:#fff;}.cls-1{fill-rule:evenodd;}</style></defs><g id="Layer_2" data-name="Layer 2"><g id="Layer_1-2" data-name="Layer 1"><path class="cls-1" d="M84.27,61.11a4.28,4.28,0,0,1,0,6h0L58.61,92.82a4.28,4.28,0,0,1-6,0h0L39.73,80a4.28,4.28,0,0,1,6.05-6l9.8,9.8L78.21,61.11a4.28,4.28,0,0,1,6.05,0Z"/><path class="cls-2" d="M25.65,12.83H17.1A17.1,17.1,0,0,0,0,29.93v89.79a17.1,17.1,0,0,0,17.1,17.1h85.52a17.1,17.1,0,0,0,17.1-17.1V29.93a17.1,17.1,0,0,0-17.1-17.1H94.07v8.55h8.55a8.55,8.55,0,0,1,8.55,8.55v89.79a8.55,8.55,0,0,1-8.55,8.55H17.1a8.55,8.55,0,0,1-8.55-8.55V29.93a8.55,8.55,0,0,1,8.55-8.55h8.55Z"/><path class="cls-2" d="M72.69,8.55A4.28,4.28,0,0,1,77,12.83v8.55a4.27,4.27,0,0,1-4.27,4.27H47a4.27,4.27,0,0,1-4.27-4.27V12.83A4.28,4.28,0,0,1,47,8.55ZM47,0A12.82,12.82,0,0,0,34.21,12.83v8.55A12.83,12.83,0,0,0,47,34.21H72.69A12.83,12.83,0,0,0,85.51,21.38V12.83A12.82,12.82,0,0,0,72.69,0Z"/></g></g></svg>