<svg xmlns="http://www.w3.org/2000/svg" viewBox="0 0 138.26 136.82"><defs><style>.cls-1{fill:#fff;}</style></defs><g id="Layer_2" data-name="Layer 2"><g id="Layer_1-2" data-name="Layer 1"><path class="cls-1" d="M60.35,57.82v-49a8.78,8.78,0,0,1,17.56,0v5.14H121.8a8.79,8.79,0,0,1,7,3.51l8.55,11.42a4.38,4.38,0,0,1,0,5.26l-8.55,11.42a8.79,8.79,0,0,1-7,3.51H77.91v87.78H60.35V92.93H16.46a8.77,8.77,0,0,1-7-3.51L.88,78a4.4,4.4,0,0,1,0-5.27L9.44,61.33a8.77,8.77,0,0,1,7-3.51Zm8.78,26.33V66.59H16.46L9.88,75.37l6.58,8.78Zm0-43.89H121.8l6.59-8.78L121.8,22.7H69.13Z"/></g></g></svg>